<mxfile host="app.diagrams.net" modified="2020-10-20T21:23:42.122Z" agent="5.0 (Windows)" etag="b2qxei0fFPP00fBoLTLx" version="13.8.1" type="github">
  <diagram id="GH6W7SEznlXIR2MrJyil" name="Page-1">
    <mxGraphModel dx="1021" dy="609" grid="1" gridSize="10" guides="1" tooltips="1" connect="1" arrows="1" fold="1" page="1" pageScale="1" pageWidth="1100" pageHeight="850" math="0" shadow="0">
      <root>
        <mxCell id="0" />
        <mxCell id="1" parent="0" />
        <mxCell id="cnqzPTQE9FA1bivrmR1H-35" value="" style="whiteSpace=wrap;html=1;aspect=fixed;fillColor=#f5f5f5;strokeColor=#666666;fontColor=#333333;" parent="1" vertex="1">
          <mxGeometry x="340" y="140" width="660" height="660" as="geometry" />
        </mxCell>
        <mxCell id="DJeCXC05ZmB5TyX4k3Av-2" value="" style="rounded=0;whiteSpace=wrap;html=1;fillColor=#dae8fc;strokeColor=#6c8ebf;" vertex="1" parent="1">
          <mxGeometry x="360" y="440" width="610" height="290" as="geometry" />
        </mxCell>
        <mxCell id="cnqzPTQE9FA1bivrmR1H-2" value="&lt;h1&gt;&amp;lt;HEADER&amp;gt;&lt;br&gt;&lt;/h1&gt;" style="rounded=0;whiteSpace=wrap;html=1;fillColor=#dae8fc;strokeColor=#6c8ebf;" parent="1" vertex="1">
          <mxGeometry width="1100" height="100" as="geometry" />
        </mxCell>
        <mxCell id="cnqzPTQE9FA1bivrmR1H-3" value="" style="rounded=0;whiteSpace=wrap;html=1;fillColor=#f5f5f5;strokeColor=#666666;fontColor=#333333;" parent="1" vertex="1">
          <mxGeometry y="100" width="250" height="750" as="geometry" />
        </mxCell>
        <mxCell id="cnqzPTQE9FA1bivrmR1H-4" value="&lt;font style=&quot;font-size: 24px&quot;&gt;&amp;lt;Side NavBar&amp;gt;&lt;/font&gt;" style="text;html=1;strokeColor=none;fillColor=none;align=center;verticalAlign=middle;whiteSpace=wrap;rounded=0;" parent="1" vertex="1">
          <mxGeometry x="50" y="110" width="180" height="30" as="geometry" />
        </mxCell>
        <mxCell id="cnqzPTQE9FA1bivrmR1H-5" value="&lt;i&gt;&lt;font style=&quot;font-size: 25px&quot;&gt;LOGO&lt;/font&gt;&lt;/i&gt;" style="text;html=1;strokeColor=#006EAF;fillColor=#1ba1e2;align=center;verticalAlign=middle;whiteSpace=wrap;rounded=0;fontColor=#ffffff;" parent="1" vertex="1">
          <mxGeometry x="70" y="30" width="110" height="40" as="geometry" />
        </mxCell>
        <mxCell id="cnqzPTQE9FA1bivrmR1H-6" value="" style="strokeWidth=1;shadow=0;dashed=0;align=center;html=1;shape=mxgraph.mockup.forms.rrect;rSize=0;strokeColor=#999999;fillColor=#ffffff;" parent="1" vertex="1">
          <mxGeometry y="200" width="250" height="140" as="geometry" />
        </mxCell>
        <mxCell id="cnqzPTQE9FA1bivrmR1H-7" value="&lt;font style=&quot;font-size: 27px&quot;&gt;Productos &lt;/font&gt;▼" style="strokeWidth=1;shadow=0;dashed=0;align=center;html=1;shape=mxgraph.mockup.forms.rrect;rSize=0;strokeColor=#006EAF;fontSize=17;fillColor=#1ba1e2;resizeWidth=1;fontColor=#ffffff;" parent="cnqzPTQE9FA1bivrmR1H-6" vertex="1">
          <mxGeometry width="250" height="60" relative="1" as="geometry">
            <mxPoint as="offset" />
          </mxGeometry>
        </mxCell>
        <mxCell id="cnqzPTQE9FA1bivrmR1H-8" value="&lt;ul&gt;&lt;li&gt;&lt;span style=&quot;background-color: rgb(0 , 0 , 102)&quot;&gt;&lt;font color=&quot;#FFFFFF&quot;&gt;&lt;i&gt;&lt;font style=&quot;font-size: 22px&quot;&gt;&amp;nbsp; Agregar&lt;br&gt;&lt;/font&gt;&lt;/i&gt;&lt;/font&gt;&lt;/span&gt;&lt;/li&gt;&lt;/ul&gt;" style="strokeWidth=1;shadow=0;dashed=0;align=center;html=1;shape=mxgraph.mockup.forms.anchor;fontSize=17;align=left;spacingLeft=5;resizeWidth=1;strokeColor=#d79b00;fillColor=#ffe6cc;" parent="cnqzPTQE9FA1bivrmR1H-6" vertex="1">
          <mxGeometry y="70.53052631578947" width="250" height="29.473684210526315" as="geometry" />
        </mxCell>
        <mxCell id="cnqzPTQE9FA1bivrmR1H-9" value="&lt;ul&gt;&lt;li&gt;&lt;font style=&quot;font-size: 23px&quot;&gt;&amp;nbsp; Eliminar&lt;/font&gt;&lt;/li&gt;&lt;/ul&gt;" style="strokeWidth=1;shadow=0;dashed=0;align=center;html=1;shape=mxgraph.mockup.forms.anchor;fontSize=17;fontColor=#666666;align=left;spacingLeft=5;resizeWidth=1;" parent="cnqzPTQE9FA1bivrmR1H-6" vertex="1">
          <mxGeometry y="100.00464396284829" width="250" height="24.705882352941178" as="geometry" />
        </mxCell>
        <mxCell id="cnqzPTQE9FA1bivrmR1H-23" value="" style="verticalLabelPosition=bottom;shadow=0;dashed=0;align=center;html=1;verticalAlign=top;strokeWidth=1;shape=mxgraph.mockup.navigation.scrollBar;strokeColor=#999999;barPos=20;fillColor2=#99ddff;strokeColor2=none;direction=north;" parent="1" vertex="1">
          <mxGeometry x="1080" y="100" width="20" height="750" as="geometry" />
        </mxCell>
        <mxCell id="cnqzPTQE9FA1bivrmR1H-24" value="&lt;font style=&quot;font-size: 28px&quot;&gt;Provedores &lt;/font&gt;&lt;font style=&quot;font-size: 19px&quot;&gt;▼&lt;/font&gt;" style="rounded=0;whiteSpace=wrap;html=1;" parent="1" vertex="1">
          <mxGeometry y="360" width="250" height="65" as="geometry" />
        </mxCell>
        <mxCell id="cnqzPTQE9FA1bivrmR1H-25" value="&lt;font style=&quot;font-size: 31px&quot;&gt;Inventario&lt;/font&gt;" style="rounded=0;whiteSpace=wrap;html=1;" parent="1" vertex="1">
          <mxGeometry y="442.5" width="250" height="65" as="geometry" />
        </mxCell>
        <mxCell id="cnqzPTQE9FA1bivrmR1H-32" value="" style="endArrow=none;html=1;exitX=1;exitY=1;exitDx=0;exitDy=0;entryX=0;entryY=0.07;entryDx=0;entryDy=0;entryPerimeter=0;" parent="1" source="cnqzPTQE9FA1bivrmR1H-3" target="cnqzPTQE9FA1bivrmR1H-23" edge="1">
          <mxGeometry width="50" height="50" relative="1" as="geometry">
            <mxPoint x="280" y="870" as="sourcePoint" />
            <mxPoint x="330" y="820" as="targetPoint" />
          </mxGeometry>
        </mxCell>
        <mxCell id="cnqzPTQE9FA1bivrmR1H-39" value="&lt;font style=&quot;font-size: 22px&quot;&gt;&amp;lt;BorrarProducto&amp;gt;&lt;/font&gt;" style="text;html=1;align=center;verticalAlign=middle;whiteSpace=wrap;rounded=0;fillColor=#f5f5f5;strokeColor=#666666;fontColor=#333333;" parent="1" vertex="1">
          <mxGeometry x="350" y="150" width="190" height="40" as="geometry" />
        </mxCell>
        <mxCell id="cnqzPTQE9FA1bivrmR1H-51" value="&lt;div&gt;Borrar&lt;/div&gt;" style="strokeWidth=1;shadow=0;dashed=0;align=center;html=1;shape=mxgraph.mockup.buttons.button;strokeColor=#B20000;fontColor=#ffffff;mainText=;buttonStyle=round;fontSize=17;fontStyle=1;fillColor=#e51400;whiteSpace=wrap;" parent="1" vertex="1">
          <mxGeometry x="590" y="740" width="150" height="50" as="geometry" />
        </mxCell>
        <mxCell id="PzjiXx4aoogb-aCdvy1u-1" value="" style="strokeWidth=1;shadow=0;dashed=0;align=center;html=1;shape=mxgraph.mockup.forms.rrect;rSize=0;strokeColor=#999999;fillColor=#ffffff;" parent="1" vertex="1">
          <mxGeometry x="500" y="200" width="360" height="230" as="geometry" />
        </mxCell>
        <mxCell id="PzjiXx4aoogb-aCdvy1u-2" value="Title" style="strokeWidth=1;shadow=0;dashed=0;align=center;html=1;shape=mxgraph.mockup.forms.rrect;rSize=0;strokeColor=#999999;fontColor=#008cff;fontSize=17;fillColor=#ffffff;resizeWidth=1;" parent="PzjiXx4aoogb-aCdvy1u-1" vertex="1">
          <mxGeometry width="355" height="30" relative="1" as="geometry" />
        </mxCell>
        <mxCell id="PzjiXx4aoogb-aCdvy1u-3" value="Item 1" style="strokeWidth=1;shadow=0;dashed=0;align=center;html=1;shape=mxgraph.mockup.forms.anchor;fontSize=17;fontColor=#666666;align=left;spacingLeft=5;resizeWidth=1;" parent="PzjiXx4aoogb-aCdvy1u-1" vertex="1">
          <mxGeometry width="355" height="20" relative="1" as="geometry">
            <mxPoint y="30" as="offset" />
          </mxGeometry>
        </mxCell>
        <mxCell id="PzjiXx4aoogb-aCdvy1u-4" value="Item 2" style="strokeWidth=1;shadow=0;dashed=0;align=center;html=1;shape=mxgraph.mockup.forms.anchor;fontSize=17;fontColor=#666666;align=left;spacingLeft=5;resizeWidth=1;" parent="PzjiXx4aoogb-aCdvy1u-1" vertex="1">
          <mxGeometry width="355" height="20" relative="1" as="geometry">
            <mxPoint y="50" as="offset" />
          </mxGeometry>
        </mxCell>
        <mxCell id="PzjiXx4aoogb-aCdvy1u-5" value="Item 3" style="strokeWidth=1;shadow=0;dashed=0;align=center;html=1;shape=mxgraph.mockup.forms.rrect;rSize=0;fontSize=17;fontColor=#666666;align=left;spacingLeft=5;fillColor=#ddeeff;strokeColor=none;resizeWidth=1;" parent="PzjiXx4aoogb-aCdvy1u-1" vertex="1">
          <mxGeometry width="355" height="20" relative="1" as="geometry">
            <mxPoint y="70" as="offset" />
          </mxGeometry>
        </mxCell>
        <mxCell id="PzjiXx4aoogb-aCdvy1u-6" value="Item 4" style="strokeWidth=1;shadow=0;dashed=0;align=center;html=1;shape=mxgraph.mockup.forms.anchor;fontSize=17;fontColor=#666666;align=left;spacingLeft=5;resizeWidth=1;" parent="PzjiXx4aoogb-aCdvy1u-1" vertex="1">
          <mxGeometry width="355" height="20" relative="1" as="geometry">
            <mxPoint y="90" as="offset" />
          </mxGeometry>
        </mxCell>
        <mxCell id="PzjiXx4aoogb-aCdvy1u-8" value="Item 5" style="strokeWidth=1;shadow=0;dashed=0;align=center;html=1;shape=mxgraph.mockup.forms.anchor;fontSize=17;fontColor=#666666;align=left;spacingLeft=5;resizeWidth=1;" parent="PzjiXx4aoogb-aCdvy1u-1" vertex="1">
          <mxGeometry y="110" width="355" height="20" as="geometry" />
        </mxCell>
        <mxCell id="PzjiXx4aoogb-aCdvy1u-7" value="Item 6" style="strokeWidth=1;shadow=0;dashed=0;align=center;html=1;shape=mxgraph.mockup.forms.anchor;fontSize=17;fontColor=#666666;align=left;spacingLeft=5;resizeWidth=1;" parent="PzjiXx4aoogb-aCdvy1u-1" vertex="1">
          <mxGeometry y="130" width="355" height="20" as="geometry" />
        </mxCell>
        <mxCell id="PzjiXx4aoogb-aCdvy1u-9" value="&lt;i&gt;Item 3&lt;/i&gt;" style="strokeWidth=1;shadow=0;dashed=0;align=center;html=1;shape=mxgraph.mockup.forms.searchBox;strokeColor=#999999;mainText=;strokeColor2=#008cff;fontColor=#666666;fontSize=17;align=left;spacingLeft=3;fillColor=#FFFFFF;" parent="PzjiXx4aoogb-aCdvy1u-1" vertex="1">
          <mxGeometry width="360" height="30" as="geometry" />
        </mxCell>
        <mxCell id="PzjiXx4aoogb-aCdvy1u-10" value="Item 7" style="strokeWidth=1;shadow=0;dashed=0;align=center;html=1;shape=mxgraph.mockup.forms.anchor;fontSize=17;fontColor=#666666;align=left;spacingLeft=5;resizeWidth=1;" parent="PzjiXx4aoogb-aCdvy1u-1" vertex="1">
          <mxGeometry y="150" width="355" height="20" as="geometry" />
        </mxCell>
        <mxCell id="PzjiXx4aoogb-aCdvy1u-11" value="Item 8" style="strokeWidth=1;shadow=0;dashed=0;align=center;html=1;shape=mxgraph.mockup.forms.anchor;fontSize=17;fontColor=#666666;align=left;spacingLeft=5;resizeWidth=1;" parent="PzjiXx4aoogb-aCdvy1u-1" vertex="1">
          <mxGeometry y="170" width="355" height="20" as="geometry" />
        </mxCell>
        <mxCell id="PzjiXx4aoogb-aCdvy1u-18" value="" style="verticalLabelPosition=bottom;shadow=0;dashed=0;align=center;html=1;verticalAlign=top;strokeWidth=1;shape=mxgraph.mockup.navigation.scrollBar;strokeColor=#999999;barPos=20;fillColor2=#99ddff;strokeColor2=none;direction=north;fillColor=#FFFFFF;" parent="PzjiXx4aoogb-aCdvy1u-1" vertex="1">
          <mxGeometry x="340" y="30" width="20" height="200" as="geometry" />
        </mxCell>
        <mxCell id="PzjiXx4aoogb-aCdvy1u-19" value="Item 9" style="strokeWidth=1;shadow=0;dashed=0;align=center;html=1;shape=mxgraph.mockup.forms.anchor;fontSize=17;fontColor=#666666;align=left;spacingLeft=5;resizeWidth=1;" parent="PzjiXx4aoogb-aCdvy1u-1" vertex="1">
          <mxGeometry y="190" width="355" height="20" as="geometry" />
        </mxCell>
        <mxCell id="PzjiXx4aoogb-aCdvy1u-12" value="" style="verticalLabelPosition=bottom;shadow=0;dashed=0;align=center;html=1;verticalAlign=top;strokeWidth=1;shape=mxgraph.mockup.graphics.simpleIcon;strokeColor=#999999;fillColor=#FFFFFF;" parent="1" vertex="1">
          <mxGeometry x="400" y="475" width="170" height="190" as="geometry" />
        </mxCell>
        <mxCell id="PzjiXx4aoogb-aCdvy1u-13" value="Nombre: Item 3" style="text;html=1;strokeColor=none;fillColor=none;align=center;verticalAlign=middle;whiteSpace=wrap;rounded=0;" parent="1" vertex="1">
          <mxGeometry x="590" y="475" width="150" height="20" as="geometry" />
        </mxCell>
        <mxCell id="PzjiXx4aoogb-aCdvy1u-15" value="&lt;i&gt;CONTENIDO&lt;/i&gt;" style="rounded=1;whiteSpace=wrap;html=1;fillColor=#FFFFFF;" parent="1" vertex="1">
          <mxGeometry x="610" y="540" width="340" height="60" as="geometry" />
        </mxCell>
        <mxCell id="PzjiXx4aoogb-aCdvy1u-16" value="Precio: XXX" style="text;html=1;strokeColor=none;fillColor=none;align=center;verticalAlign=middle;whiteSpace=wrap;rounded=0;" parent="1" vertex="1">
          <mxGeometry x="610" y="612.5" width="110" height="20" as="geometry" />
        </mxCell>
        <mxCell id="PzjiXx4aoogb-aCdvy1u-17" value="Descripcion" style="text;html=1;strokeColor=none;fillColor=none;align=center;verticalAlign=middle;whiteSpace=wrap;rounded=0;" parent="1" vertex="1">
          <mxGeometry x="610" y="507.5" width="90" height="20" as="geometry" />
        </mxCell>
        <mxCell id="PzjiXx4aoogb-aCdvy1u-21" style="edgeStyle=orthogonalEdgeStyle;rounded=0;orthogonalLoop=1;jettySize=auto;html=1;" parent="1" source="PzjiXx4aoogb-aCdvy1u-20" target="cnqzPTQE9FA1bivrmR1H-35" edge="1">
          <mxGeometry relative="1" as="geometry" />
        </mxCell>
        <mxCell id="PzjiXx4aoogb-aCdvy1u-20" value="&lt;h1&gt;Componente 9: BorrarProducto&lt;br&gt;&lt;/h1&gt;&lt;p&gt;Componente con una lista de todos productosy que al elegir un producto carga el componente productoInfo para mostrar su informacion&lt;br&gt;&lt;/p&gt;" style="text;html=1;strokeColor=#d6b656;fillColor=#fff2cc;spacing=5;spacingTop=-20;whiteSpace=wrap;overflow=hidden;rounded=0;" parent="1" vertex="1">
          <mxGeometry x="515" y="1040" width="310" height="130" as="geometry" />
        </mxCell>
        <mxCell id="PzjiXx4aoogb-aCdvy1u-22" value="id: XXX" style="text;html=1;strokeColor=none;fillColor=none;align=center;verticalAlign=middle;whiteSpace=wrap;rounded=0;" parent="1" vertex="1">
          <mxGeometry x="610" y="660" width="110" height="20" as="geometry" />
        </mxCell>
        <mxCell id="DJeCXC05ZmB5TyX4k3Av-3" value="&amp;lt;Producto Info&amp;gt;" style="text;html=1;strokeColor=#666666;fillColor=#f5f5f5;align=center;verticalAlign=middle;whiteSpace=wrap;rounded=0;fontColor=#333333;" vertex="1" parent="1">
          <mxGeometry x="400" y="455" width="100" height="20" as="geometry" />
        </mxCell>
        <mxCell id="DJeCXC05ZmB5TyX4k3Av-4" value="" style="strokeWidth=1;shadow=0;dashed=0;align=center;html=1;shape=mxgraph.mockup.forms.rrect;rSize=0;strokeColor=#999999;fillColor=#ffffff;" vertex="1" parent="1">
          <mxGeometry x="770" y="609.9976923076924" width="150" height="103.3846153846154" as="geometry" />
        </mxCell>
        <mxCell id="DJeCXC05ZmB5TyX4k3Av-5" value="Provedores" style="strokeWidth=1;shadow=0;dashed=0;align=center;html=1;shape=mxgraph.mockup.forms.rrect;rSize=0;strokeColor=#999999;fontColor=#008cff;fontSize=17;fillColor=#ffffff;resizeWidth=1;" vertex="1" parent="DJeCXC05ZmB5TyX4k3Av-4">
          <mxGeometry width="150" height="30" relative="1" as="geometry" />
        </mxCell>
        <mxCell id="DJeCXC05ZmB5TyX4k3Av-6" value="Item 1" style="strokeWidth=1;shadow=0;dashed=0;align=center;html=1;shape=mxgraph.mockup.forms.anchor;fontSize=17;fontColor=#666666;align=left;spacingLeft=5;resizeWidth=1;" vertex="1" parent="DJeCXC05ZmB5TyX4k3Av-4">
          <mxGeometry width="150" height="20" relative="1" as="geometry">
            <mxPoint y="30" as="offset" />
          </mxGeometry>
        </mxCell>
        <mxCell id="DJeCXC05ZmB5TyX4k3Av-7" value="Item 2" style="strokeWidth=1;shadow=0;dashed=0;align=center;html=1;shape=mxgraph.mockup.forms.anchor;fontSize=17;fontColor=#666666;align=left;spacingLeft=5;resizeWidth=1;" vertex="1" parent="DJeCXC05ZmB5TyX4k3Av-4">
          <mxGeometry width="150" height="20" relative="1" as="geometry">
            <mxPoint y="50" as="offset" />
          </mxGeometry>
        </mxCell>
        <mxCell id="DJeCXC05ZmB5TyX4k3Av-8" value="&lt;font color=&quot;#4D4D4D&quot;&gt;Item 3&lt;/font&gt;" style="strokeWidth=1;shadow=0;dashed=0;align=center;html=1;shape=mxgraph.mockup.forms.rrect;rSize=0;fontSize=17;align=left;spacingLeft=5;resizeWidth=1;strokeColor=none;" vertex="1" parent="DJeCXC05ZmB5TyX4k3Av-4">
          <mxGeometry width="150" height="20" relative="1" as="geometry">
            <mxPoint y="70" as="offset" />
          </mxGeometry>
        </mxCell>
        <mxCell id="DJeCXC05ZmB5TyX4k3Av-9" value="Item 4" style="strokeWidth=1;shadow=0;dashed=0;align=center;html=1;shape=mxgraph.mockup.forms.anchor;fontSize=17;fontColor=#666666;align=left;spacingLeft=5;resizeWidth=1;" vertex="1" parent="DJeCXC05ZmB5TyX4k3Av-4">
          <mxGeometry width="150" height="20" relative="1" as="geometry">
            <mxPoint y="90" as="offset" />
          </mxGeometry>
        </mxCell>
      </root>
    </mxGraphModel>
  </diagram>
</mxfile>
